<?xml version="1.0" encoding="ISO-8859-1"?>
<!DOCTYPE svg PUBLIC "-//W3C//DTD SVG 1.0//EN" "http://www.w3.org/TR/2001/REC-SVG-20010904/DTD/svg10.dtd">
<!-- generated by Grace-5.1.25 -->
<svg xml:space="preserve" width="11.0000in" height="8.5000in" viewBox="0.0000 0.0000 792.0000 612.0000">
 <g transform="translate(0,612.0000) scale(1,-1)">
 <desc>latticemodel
</desc>
  <g style="fill:#FFFFFF; fill-rule:nonzero">
   <path  d="M0.0000,0.0000L0.0000,612.0000L792.0000,612.0000L792.0000,0.0000z"/>
  </g>
  <g style="fill:none; stroke:#BC8F8F; stroke-width:  1.3770; stroke-linecap:butt; stroke-linejoin:miter; stroke-dasharray:none">
   <path d="M129.2000,181.7640L134.6950,192.7299L140.1899,203.4721L145.6848,213.9904L151.1798,224.2849L156.6747,234.3557L162.1697,244.2026L167.6646,253.8258L173.1596,263.2251L178.6545,272.4007
            L184.1495,281.3525L189.6444,290.0804L195.1394,298.5846L200.6343,306.8650L206.1293,314.9216L211.6242,322.7544L217.1192,330.3634L222.6141,337.7486L228.1091,344.9100L233.6040,351.8477
            L239.0990,358.5615L244.5939,365.0515L250.0889,371.3178L255.5838,377.3602L261.0788,383.1789L266.5737,388.7737L272.0687,394.1448L277.5636,399.2921L283.0586,404.2155L288.5535,408.9152
            L294.0485,413.3911L299.5434,417.6432L305.0384,421.6715L310.5333,425.4760L316.0283,429.0567L321.5232,432.4136L327.0182,435.5467L332.5131,438.4561L338.0081,441.1416L343.5030,443.6033
            L348.9980,445.8413L354.4929,447.8554L359.9879,449.6458L365.4828,451.2123L370.9778,452.5551L376.4727,453.6741L381.9677,454.5693L387.4626,455.2406L392.9576,455.6882L398.4525,455.9120
            L403.9475,455.9120L409.4424,455.6882L414.9374,455.2406L420.4323,454.5693L425.9273,453.6741L431.4222,452.5551L436.9172,451.2123L442.4121,449.6458L447.9071,447.8554L453.4020,445.8413
            L458.8970,443.6033L464.3919,441.1416L469.8869,438.4561L475.3818,435.5467L480.8768,432.4136L486.3717,429.0567L491.8667,425.4760L497.3616,421.6715L502.8566,417.6432L508.3515,413.3911
            L513.8465,408.9152L519.3414,404.2155L524.8364,399.2921L530.3313,394.1448L535.8263,388.7737L541.3212,383.1789L546.8162,377.3602L552.3111,371.3178L557.8061,365.0515L563.3010,358.5615
            L568.7960,351.8477L574.2909,344.9100L579.7859,337.7486L585.2808,330.3634L590.7758,322.7544L596.2707,314.9216L601.7657,306.8650L607.2606,298.5846L612.7556,290.0804L618.2505,281.3525
            L623.7455,272.4007L629.2404,263.2251L634.7354,253.8258L640.2303,244.2026L645.7253,234.3557L651.2202,224.2849L656.7152,213.9904L662.2101,203.4721L667.7050,192.7299L673.2000,181.7640"/>
  </g>
  <g style="fill:none; stroke:#000000; stroke-width:  0.9180; stroke-linecap:butt; stroke-linejoin:miter; stroke-dasharray: 5 3">
   <path d="M129.2000,181.8732L197.2000,301.8032L265.2000,387.4755L333.2000,438.8739L401.2000,455.8999L469.2000,438.7550L537.2000,387.3307L605.2000,301.7359L673.2000,181.7019"/>
  </g>
  <g style="fill:none; stroke:#000000; stroke-width:  1.8360; stroke-linecap:butt; stroke-linejoin:miter; stroke-dasharray:none">
   <ellipse  rx="3.4884" ry="3.4884" cx="129.2000" cy="181.8732"/>
   <ellipse  rx="3.4884" ry="3.4884" cx="197.2000" cy="301.8032"/>
   <ellipse  rx="3.4884" ry="3.4884" cx="265.2000" cy="387.4755"/>
   <ellipse  rx="3.4884" ry="3.4884" cx="333.2000" cy="438.8739"/>
   <ellipse  rx="3.4884" ry="3.4884" cx="401.2000" cy="455.8999"/>
   <ellipse  rx="3.4884" ry="3.4884" cx="469.2000" cy="438.7550"/>
   <ellipse  rx="3.4884" ry="3.4884" cx="537.2000" cy="387.3307"/>
   <ellipse  rx="3.4884" ry="3.4884" cx="605.2000" cy="301.7359"/>
   <ellipse  rx="3.4884" ry="3.4884" cx="673.2000" cy="181.7019"/>
  </g>
  <g style="fill:none; stroke:#000000; stroke-width:  0.9180; stroke-linecap:butt; stroke-linejoin:miter; stroke-dasharray:none">
   <path d="M91.8000,91.8000L703.8000,91.8000"/>
   <path d="M91.8000,520.2000L703.8000,520.2000"/>
   <path d="M129.2000,91.8000L129.2000,97.9200"/>
   <path d="M129.2000,520.2000L129.2000,514.0800"/>
   <path d="M265.2000,91.8000L265.2000,97.9200"/>
   <path d="M265.2000,520.2000L265.2000,514.0800"/>
   <path d="M401.2000,91.8000L401.2000,97.9200"/>
   <path d="M401.2000,520.2000L401.2000,514.0800"/>
   <path d="M537.2000,91.8000L537.2000,97.9200"/>
   <path d="M537.2000,520.2000L537.2000,514.0800"/>
   <path d="M673.2000,91.8000L673.2000,97.9200"/>
   <path d="M673.2000,520.2000L673.2000,514.0800"/>
   <path d="M197.2000,91.8000L197.2000,104.0400"/>
   <path d="M197.2000,520.2000L197.2000,507.9600"/>
   <path d="M333.2000,91.8000L333.2000,104.0400"/>
   <path d="M333.2000,520.2000L333.2000,507.9600"/>
   <path d="M469.2000,91.8000L469.2000,104.0400"/>
   <path d="M469.2000,520.2000L469.2000,507.9600"/>
   <path d="M605.2000,91.8000L605.2000,104.0400"/>
   <path d="M605.2000,520.2000L605.2000,507.9600"/>
  </g>
  <g style="fill:#000000; fill-rule:nonzero">
   <text   style="font-family:'Times','Nimbus Roman'; font-style:normal; font-weight:normal; font-size:612.0000" transform="matrix(0.0280,0.0000,-0.0000,-0.0280,186.7000,74.6800)">0.2</text>
   <text   style="font-family:'Times','Nimbus Roman'; font-style:normal; font-weight:normal; font-size:612.0000" transform="matrix(0.0280,0.0000,-0.0000,-0.0280,322.7000,74.6800)">0.4</text>
   <text   style="font-family:'Times','Nimbus Roman'; font-style:normal; font-weight:normal; font-size:612.0000" transform="matrix(0.0280,0.0000,-0.0000,-0.0280,458.7000,73.6800)">0.6</text>
   <text   style="font-family:'Times','Nimbus Roman'; font-style:normal; font-weight:normal; font-size:612.0000" transform="matrix(0.0280,0.0000,-0.0000,-0.0280,595.2000,74.6800)">0.8</text>
   <text   style="font-family:'Times','Nimbus Roman'; font-style:normal; font-weight:normal; font-size:612.0000" transform="matrix(0.0280,0.0000,-0.0000,-0.0280,316.3000,54.5600)">Concentration of Solute</text>
  </g>
  <g style="fill:none; stroke:#000000; stroke-width:  0.9180; stroke-linecap:butt; stroke-linejoin:miter; stroke-dasharray:none">
   <path d="M91.8000,91.8000L91.8000,520.2000"/>
   <path d="M703.8000,91.8000L703.8000,520.2000"/>
   <path d="M91.8000,188.1900L97.9200,188.1900"/>
   <path d="M703.8000,188.1900L697.6800,188.1900"/>
   <path d="M91.8000,295.2900L97.9200,295.2900"/>
   <path d="M703.8000,295.2900L697.6800,295.2900"/>
   <path d="M91.8000,402.3900L97.9200,402.3900"/>
   <path d="M703.8000,402.3900L697.6800,402.3900"/>
   <path d="M91.8000,509.4900L97.9200,509.4900"/>
   <path d="M703.8000,509.4900L697.6800,509.4900"/>
   <path d="M91.8000,134.6400L104.0400,134.6400"/>
   <path d="M703.8000,134.6400L691.5600,134.6400"/>
   <path d="M91.8000,241.7400L104.0400,241.7400"/>
   <path d="M703.8000,241.7400L691.5600,241.7400"/>
   <path d="M91.8000,348.8400L104.0400,348.8400"/>
   <path d="M703.8000,348.8400L691.5600,348.8400"/>
   <path d="M91.8000,455.9400L104.0400,455.9400"/>
   <path d="M703.8000,455.9400L691.5600,455.9400"/>
  </g>
  <g style="fill:#000000; fill-rule:nonzero">
   <text   style="font-family:'Times','Nimbus Roman'; font-style:normal; font-weight:normal; font-size:612.0000" transform="matrix(0.0280,0.0000,-0.0000,-0.0280,37.6800,128.6400)">-15000</text>
   <text   style="font-family:'Times','Nimbus Roman'; font-style:normal; font-weight:normal; font-size:612.0000" transform="matrix(0.0280,0.0000,-0.0000,-0.0280,37.6800,235.7400)">-10000</text>
   <text   style="font-family:'Times','Nimbus Roman'; font-style:normal; font-weight:normal; font-size:612.0000" transform="matrix(0.0280,0.0000,-0.0000,-0.0280,46.6800,342.8400)">-5000</text>
   <text   style="font-family:'Times','Nimbus Roman'; font-style:normal; font-weight:normal; font-size:612.0000" transform="matrix(0.0280,0.0000,-0.0000,-0.0280,77.6800,450.4400)">0</text>
   <text   style="font-family:'Times','Nimbus Roman'; font-style:normal; font-weight:normal; font-size:612.0000" transform="matrix(0.0000,0.0280,0.0280,-0.0000,27.5600,193.0000)">Lattice Energy (simulation units)</text>
  </g>
  <g style="fill:none; stroke:#000000; stroke-width:  0.9180; stroke-linecap:butt; stroke-linejoin:miter; stroke-dasharray:none">
   <path d="M91.8000,91.8000L91.8000,520.2000L703.8000,520.2000L703.8000,91.8000z"/>
  </g>
  <g style="fill:#000000; fill-rule:nonzero">
   <text   style="font-family:'Times','Nimbus Roman'; font-style:normal; font-weight:normal; font-size:612.0000" transform="matrix(0.0420,0.0000,-0.0000,-0.0420,308.3000,562.9200)">Energy of Lattice</text>
   <text   style="font-family:'Times','Nimbus Roman'; font-style:normal; font-weight:normal; font-size:612.0000" transform="matrix(0.0280,0.0000,-0.0000,-0.0280,232.8000,536.4400)">Theoretical prediction and Computational result</text>
  </g>
 </g>
</svg>
